<svg width="400" height="780" xmlns="http://www.w3.org/2000/svg">
<defs><linearGradient id="pbg" x1="0" y1="0" x2="0" y2="1"><stop offset="0%" stop-color="#162440"/><stop offset="100%" stop-color="#0a1628"/></linearGradient><clipPath id="screen"><rect x="20" y="20" width="360" height="740" rx="32"/></clipPath></defs>
<rect x="10" y="10" width="380" height="760" fill="#111827" rx="38" stroke="#374151" stroke-width="2"/>
<rect x="10" y="10" width="380" height="760" rx="38" fill="none" stroke="#374151" stroke-width="2"/>
<rect x="20" y="20" width="360" height="740" fill="#0f172a" rx="30"/>
<g clip-path="url(#screen)">
<rect x="20" y="20" width="360" height="740" fill="url(#pbg)" rx="0"/>
<line x1="40" y1="20" x2="40" y2="760" stroke="#1e3560" stroke-width="0.4" opacity="0.4"/>
<line x1="100" y1="20" x2="100" y2="760" stroke="#1e3560" stroke-width="0.4" opacity="0.4"/>
<line x1="160" y1="20" x2="160" y2="760" stroke="#1e3560" stroke-width="0.4" opacity="0.4"/>
<line x1="220" y1="20" x2="220" y2="760" stroke="#1e3560" stroke-width="0.4" opacity="0.4"/>
<line x1="280" y1="20" x2="280" y2="760" stroke="#1e3560" stroke-width="0.4" opacity="0.4"/>
<line x1="340" y1="20" x2="340" y2="760" stroke="#1e3560" stroke-width="0.4" opacity="0.4"/>
<line x1="20" y1="60" x2="380" y2="60" stroke="#1e3560" stroke-width="0.4" opacity="0.4"/>
<line x1="20" y1="120" x2="380" y2="120" stroke="#1e3560" stroke-width="0.4" opacity="0.4"/>
<line x1="20" y1="180" x2="380" y2="180" stroke="#1e3560" stroke-width="0.4" opacity="0.4"/>
<line x1="20" y1="240" x2="380" y2="240" stroke="#1e3560" stroke-width="0.4" opacity="0.4"/>
<line x1="20" y1="300" x2="380" y2="300" stroke="#1e3560" stroke-width="0.4" opacity="0.4"/>
<line x1="20" y1="360" x2="380" y2="360" stroke="#1e3560" stroke-width="0.4" opacity="0.4"/>
<line x1="20" y1="420" x2="380" y2="420" stroke="#1e3560" stroke-width="0.4" opacity="0.4"/>
<line x1="20" y1="480" x2="380" y2="480" stroke="#1e3560" stroke-width="0.4" opacity="0.4"/>
<line x1="20" y1="540" x2="380" y2="540" stroke="#1e3560" stroke-width="0.4" opacity="0.4"/>
<line x1="20" y1="600" x2="380" y2="600" stroke="#1e3560" stroke-width="0.4" opacity="0.4"/>
<line x1="20" y1="660" x2="380" y2="660" stroke="#1e3560" stroke-width="0.4" opacity="0.4"/>
<line x1="20" y1="720" x2="380" y2="720" stroke="#1e3560" stroke-width="0.4" opacity="0.4"/>
<line x1="160" y1="20" x2="160" y2="760" stroke="#263d6a" stroke-width="1.5" opacity="0.5"/>
<line x1="20" y1="340" x2="380" y2="340" stroke="#263d6a" stroke-width="1.5" opacity="0.5"/>
<rect x="20" y="20" width="360" height="36" fill="#0c1527" rx="0" opacity="0.95"/>
<text x="40" y="43" fill="#e2e8f0" font-size="13" font-family="'Segoe UI',Arial,sans-serif" text-anchor="start" font-weight="bold">9:41</text>
<text x="350" y="43" fill="#e2e8f0" font-size="11" font-family="'Segoe UI',Arial,sans-serif" text-anchor="end" font-weight="normal">●●● 100%</text>
<rect x="20" y="56" width="360" height="42" fill="#0c1527" rx="0" opacity="0.95"/>
<text x="40" y="83" fill="#38bdf8" font-size="14" font-family="'Segoe UI',Arial,sans-serif" text-anchor="start" font-weight="bold">📡 APRS Net</text>
<circle cx="355" cy="77" r="6" fill="#4ade80"/>
<circle cx="100" cy="200" r="9" fill="#3b82f6" opacity="0.9" stroke="white" stroke-width="0.8"/>
<circle cx="240" cy="160" r="9" fill="#a855f7" opacity="0.9" stroke="white" stroke-width="0.8"/>
<circle cx="290" cy="300" r="9" fill="#22c55e" opacity="0.9" stroke="white" stroke-width="0.8"/>
<circle cx="140" cy="380" r="9" fill="#14b8a6" opacity="0.9" stroke="white" stroke-width="0.8"/>
<circle cx="310" cy="200" r="9" fill="#3b82f6" opacity="0.9" stroke="white" stroke-width="0.8"/>
<circle cx="80" cy="460" r="9" fill="#f97316" opacity="0.9" stroke="white" stroke-width="0.8"/>
<circle cx="230" cy="430" r="9" fill="#3b82f6" opacity="0.9" stroke="white" stroke-width="0.8"/>
<circle cx="320" cy="450" r="9" fill="#ef4444" opacity="0.9" stroke="white" stroke-width="0.8"/>
<circle cx="170" cy="280" r="9" fill="#3b82f6" opacity="0.9" stroke="white" stroke-width="0.8"/>
<circle cx="200" cy="330" r="18" fill="#38bdf8" opacity="0.15"/>
<circle cx="200" cy="330" r="9" fill="#38bdf8" stroke="white" stroke-width="1.5"/>
<rect x="40" y="490" width="260" height="110" fill="#1e293b" rx="10" opacity="0.95" stroke="#334155" stroke-width="1"/>
<rect x="40" y="490" width="260" height="28" fill="#1e3a5f" rx="10"/>
<rect x="40" y="508" width="260" height="10" fill="#1e3a5f" rx="0"/>
<text x="54" y="509" fill="#38bdf8" font-size="13" font-family="'Segoe UI',Arial,sans-serif" text-anchor="start" font-weight="bold">G4RCG-9</text>
<text x="292" y="509" fill="#94a3b8" font-size="14" font-family="'Segoe UI',Arial,sans-serif" text-anchor="end" font-weight="normal">×</text>
<text x="54" y="534" fill="#94a3b8" font-size="11" font-family="'Segoe UI',Arial,sans-serif" text-anchor="start" font-weight="normal">Ham APRS  ·  IO93  ·  8.2 km</text>
<text x="54" y="554" fill="#94a3b8" font-size="10" font-family="'Segoe UI',Arial,sans-serif" text-anchor="start" font-weight="normal">Last: 3 min ago  ·  ViaBrm</text>
<rect x="54" y="568" width="100" height="22" fill="#38bdf8" rx="4"/>
<text x="104" y="583" fill="#0f172a" font-size="11" font-family="'Segoe UI',Arial,sans-serif" text-anchor="middle" font-weight="bold">Message</text>
<rect x="166" y="568" width="120" height="22" fill="#162032" rx="4" stroke="#334155" stroke-width="1"/>
<text x="226" y="583" fill="#94a3b8" font-size="11" font-family="'Segoe UI',Arial,sans-serif" text-anchor="middle" font-weight="normal">Add Contact</text>
<circle cx="52" cy="670" r="24" fill="#38bdf8" opacity="0.95"/>
<text x="52" y="677" fill="#e2e8f0" font-size="18" font-family="'Segoe UI',Arial,sans-serif" text-anchor="middle" font-weight="normal">⚙</text>
<circle cx="348" cy="670" r="24" fill="#1e293b" stroke="#38bdf8" stroke-width="1.5"/>
<text x="348" y="677" fill="#38bdf8" font-size="18" font-family="'Segoe UI',Arial,sans-serif" text-anchor="middle" font-weight="normal">◎</text>
<rect x="20" y="710" width="360" height="50" fill="#0c1527" rx="0" opacity="0.97"/>
<rect x="20" y="710" width="360" height="1" fill="#1e3a5f" rx="0"/>
<text x="65" y="733" fill="#38bdf8" font-size="16" font-family="'Segoe UI',Arial,sans-serif" text-anchor="middle" font-weight="normal">🗺</text>
<text x="65" y="752" fill="#38bdf8" font-size="9" font-family="'Segoe UI',Arial,sans-serif" text-anchor="middle" font-weight="normal">Map</text>
<rect x="45" y="710" width="40" height="2" fill="#38bdf8" rx="0"/>
<text x="155" y="733" fill="#94a3b8" font-size="16" font-family="'Segoe UI',Arial,sans-serif" text-anchor="middle" font-weight="normal">💬</text>
<text x="155" y="752" fill="#94a3b8" font-size="9" font-family="'Segoe UI',Arial,sans-serif" text-anchor="middle" font-weight="normal">Msgs</text>
<text x="245" y="733" fill="#94a3b8" font-size="16" font-family="'Segoe UI',Arial,sans-serif" text-anchor="middle" font-weight="normal">📻</text>
<text x="245" y="752" fill="#94a3b8" font-size="9" font-family="'Segoe UI',Arial,sans-serif" text-anchor="middle" font-weight="normal">Stns</text>
<text x="335" y="733" fill="#94a3b8" font-size="16" font-family="'Segoe UI',Arial,sans-serif" text-anchor="middle" font-weight="normal">⚙</text>
<text x="335" y="752" fill="#94a3b8" font-size="9" font-family="'Segoe UI',Arial,sans-serif" text-anchor="middle" font-weight="normal">Settings</text>
</g>
<rect x="170" y="764" width="60" height="4" fill="#374151" rx="2"/>
</svg>